<mxfile host="app.diagrams.net" modified="2024-05-03T14:37:49.589Z" agent="Mozilla/5.0 (Macintosh; Intel Mac OS X 10_15_7) AppleWebKit/537.36 (KHTML, like Gecko) Chrome/123.0.0.0 Safari/537.36" version="24.3.1" etag="-K2lWcXfuw_xsTMceWi0" type="github">
  <diagram name="第 1 页" id="4XVhk9JFLBVwJwxI4ibj">
    <mxGraphModel>
      <root>
        <mxCell id="0" />
        <mxCell id="1" parent="0" />
      </root>
    </mxGraphModel>
  </diagram>
</mxfile>
